{"glyphs":{":":{"x_min":0,"x_max":231,"ha":231,"o":"m 66 290 l 77 353 l 135 353 l 124 290 z m 6 0 l 17 63 l 76 63 l 63 0 z"},"$":{"x_min":0,"x_max":490,"ha":490,"o":"m 304 427 l 265 248 q 338 231 363 210 q 387 188 387 150 q 387 86 340 53 q 293 21 215 14 l 204 -40 l 162 -40 l 173 12 q 131 12 98 19 q 65 26 47 37 l 53 73 q 73 62 106 55 q 140 47 181 47 l 218 222 q 154 236 130 262 q 105 289 105 332 q 105 393 149 426 q 193 459 269 463 l 280 513 l 322 513 l 311 462 q 370 459 425 440 l 416 407 q 354 424 304 427 z m 225 257 l 261 426 q 147 417 147 335 q 147 310 157 294 q 167 279 184 271 q 200 263 225 257 z m 258 214 l 223 49 q 345 60 345 145 q 345 173 329 187 q 312 201 258 214 z"},"?":{"x_min":0,"x_max":384,"ha":384,"o":"m 365 538 q 365 580 336 605 q 308 631 252 631 q 218 631 182 621 q 145 611 126 600 l 133 638 q 155 651 188 659 q 220 666 253 666 q 324 666 365 631 q 406 596 406 536 q 406 496 391 468 q 377 439 356 419 q 334 400 297 373 q 236 331 214 306 q 191 281 179 256 q 167 230 159 188 l 122 188 q 128 244 151 283 q 174 322 202 346 q 230 370 274 399 q 328 436 347 467 q 365 498 365 538 z m 79 0 l 93 63 l 148 63 l 134 0 z"},"<":{"x_min":0,"x_max":500,"ha":500,"o":"m 444 29 l 56 244 l 56 270 l 444 485 l 444 438 l 114 257 l 114 255 l 444 74 z"},"'":{"x_min":0,"x_max":164,"ha":164,"o":"m 85 437 l 131 653 l 176 653 l 133 437 z"},"=":{"x_min":0,"x_max":500,"ha":500,"o":"m 56 290 l 56 327 l 444 327 l 444 290 z m 56 161 l 56 200 l 444 200 l 444 161 z"},"a":{"x_min":0,"x_max":467,"ha":467,"o":"m 42 144 q 42 217 70 292 q 99 368 152 418 q 206 468 278 468 q 346 468 387 405 l 389 405 l 411 456 l 439 456 l 361 85 q 357 65 357 52 q 357 28 379 28 q 397 28 409 30 l 400 -3 q 384 -7 367 -7 q 342 -7 329 6 q 316 18 316 39 q 316 54 319 73 l 317 73 q 252 -12 167 -12 q 107 -12 75 27 q 42 66 42 144 z m 379 365 q 357 396 333 414 q 310 432 274 432 q 214 432 171 386 q 128 340 106 273 q 84 205 84 142 q 84 74 109 49 q 134 24 176 24 q 230 24 278 67 q 326 111 339 173 z"},"L":{"x_min":0,"x_max":461,"ha":461,"o":"m 44 0 l 178 653 l 222 653 l 96 39 l 411 39 l 401 0 z"},"3":{"x_min":0,"x_max":450,"ha":450,"o":"m -57 -178 l -50 -143 q 8 -167 75 -167 q 174 -167 234 -117 q 294 -68 294 12 q 294 76 251 101 q 209 125 111 125 l 96 125 l 103 160 l 124 160 q 183 160 234 183 q 285 206 316 245 q 347 285 347 334 q 347 380 313 407 q 279 433 220 433 q 188 433 150 425 q 112 417 82 406 l 89 443 q 158 468 230 468 q 303 468 345 433 q 387 397 387 332 q 387 270 341 219 q 295 169 218 148 l 216 146 q 273 139 304 105 q 334 72 334 15 q 334 -83 262 -143 q 190 -202 72 -202 q 1 -202 -57 -178 z"},";":{"x_min":0,"x_max":229,"ha":229,"o":"m 48 290 l 61 353 l 120 353 l 106 290 z m -66 -180 l 22 84 l 70 84 l -25 -180 z"},"J":{"x_min":0,"x_max":333,"ha":333,"o":"m -10 -2 l 0 40 q 33 29 58 29 q 104 29 134 55 q 165 81 178 144 l 286 653 l 329 653 l 222 132 q 208 71 185 42 q 162 12 133 0 q 105 -12 64 -12 q 18 -12 -10 -2 z"},"V":{"x_min":0,"x_max":524,"ha":524,"o":"m 101 653 l 143 653 l 221 212 q 235 126 244 60 l 246 60 q 263 100 312 192 l 556 653 l 603 653 l 252 0 l 214 0 z"},"\"":{"x_min":0,"x_max":313,"ha":313,"o":"m 78 437 l 125 653 l 177 653 l 132 437 z m 240 437 l 284 653 l 338 653 l 294 437 z"},"7":{"x_min":0,"x_max":388,"ha":388,"o":"m 24 -189 l 334 417 l 35 417 l 42 456 l 392 456 l 386 430 l 67 -189 z"},"S":{"x_min":0,"x_max":534,"ha":534,"o":"m 23 31 l 32 70 q 59 50 105 39 q 152 28 203 28 q 298 28 354 72 q 411 116 411 189 q 411 231 391 258 q 371 284 343 297 q 314 310 274 321 q 221 336 186 355 q 151 374 131 404 q 111 435 111 483 q 111 535 138 576 q 166 618 218 642 q 270 666 341 666 q 434 666 507 633 l 498 589 q 478 603 430 614 q 382 626 339 626 q 258 626 208 585 q 157 544 157 479 q 157 438 186 412 q 215 385 297 362 q 347 348 381 329 q 416 310 436 276 q 457 242 457 189 q 457 98 386 43 q 316 -12 201 -12 q 151 -12 103 -2 q 54 9 23 31 z"},"}":{"x_min":0,"x_max":280,"ha":280,"o":"m 99 -14 q 99 7 91 38 q 77 91 77 123 q 77 171 103 208 q 128 245 167 253 l 166 255 q 148 260 138 282 q 127 305 127 337 q 127 391 162 440 q 181 466 190 480 q 199 493 206 510 q 213 527 213 545 q 213 571 189 588 q 165 604 116 604 l 125 641 l 126 641 q 211 641 237 613 q 263 585 263 550 q 263 526 255 505 q 248 484 237 469 q 226 453 206 427 q 185 400 173 376 q 161 352 161 324 q 161 292 182 281 q 203 270 231 270 l 222 229 q 194 227 176 222 q 157 217 139 194 q 121 171 121 122 q 121 99 134 53 q 140 32 143 18 q 146 3 146 -16 q 146 -70 98 -102 q 49 -134 -33 -134 l -42 -134 l -36 -97 q 99 -97 99 -14 z"},"Z":{"x_min":0,"x_max":537,"ha":537,"o":"m 20 0 l 25 28 l 485 614 l 133 614 l 144 653 l 553 653 l 547 625 l 87 39 l 452 39 l 444 0 z"},"x":{"x_min":0,"x_max":416,"ha":416,"o":"m -22 0 l 189 234 l 70 456 l 113 456 l 218 257 l 392 456 l 440 456 l 236 223 l 357 0 l 314 0 l 208 200 l 26 0 z"},")":{"x_min":0,"x_max":262,"ha":262,"o":"m -49 -129 q 61 -38 121 96 q 181 229 181 380 q 181 533 109 637 l 140 662 q 177 618 200 536 q 224 455 224 366 q 224 209 160 74 q 96 -61 -25 -155 z"},"&":{"x_min":0,"x_max":567,"ha":567,"o":"m 421 97 l 498 0 l 450 0 l 392 71 q 290 -12 160 -12 q 108 -12 72 8 q 36 28 19 60 q 1 91 1 126 q 1 198 37 246 q 74 293 171 345 q 125 404 111 438 q 97 472 97 506 q 97 578 148 623 q 198 668 279 668 q 343 668 380 634 q 418 601 418 545 q 418 493 392 454 q 366 416 327 390 q 289 364 229 334 l 397 126 q 441 170 469 223 q 497 276 504 332 l 544 332 q 518 193 421 97 z m 139 505 q 139 472 154 442 q 168 412 206 363 q 266 393 299 414 q 332 434 354 465 q 377 496 377 538 q 377 583 349 607 q 321 632 272 632 q 218 632 179 594 q 139 557 139 505 z m 167 24 q 273 24 368 100 l 193 316 q 106 271 74 232 q 42 193 42 137 q 42 82 74 53 q 107 24 167 24 z"},"_":{"x_min":0,"x_max":497,"ha":497,"o":"m -63 -111 l -63 -69 l 425 -69 l 425 -111 z"},"v":{"x_min":0,"x_max":444,"ha":444,"o":"m 66 456 l 105 456 l 170 141 l 188 48 l 190 48 q 207 72 231 115 l 422 456 l 468 456 l 206 0 l 160 0 z"},"O":{"x_min":0,"x_max":692,"ha":692,"o":"m 75 234 q 75 333 115 434 q 155 534 235 600 q 314 666 425 666 q 533 666 592 601 q 651 537 651 418 q 651 320 612 220 q 572 121 494 54 q 415 -12 303 -12 q 194 -12 135 52 q 75 117 75 234 z m 606 423 q 606 522 560 574 q 514 626 427 626 q 330 626 260 563 q 191 501 156 409 q 121 317 121 230 q 121 133 168 81 q 214 28 301 28 q 398 28 467 90 q 536 151 571 243 q 606 335 606 423 z"},"(":{"x_min":0,"x_max":262,"ha":262,"o":"m 28 141 q 28 298 92 435 q 157 572 275 662 l 299 637 q 189 544 130 410 q 70 276 70 125 q 70 -27 141 -129 l 110 -155 q 74 -111 51 -29 q 28 53 28 141 z"},"C":{"x_min":0,"x_max":549,"ha":549,"o":"m 66 252 q 66 324 94 404 q 122 484 171 543 q 220 602 285 634 q 350 666 436 666 q 472 666 506 661 q 540 655 556 647 l 546 607 q 527 616 495 621 q 462 626 433 626 q 344 626 270 573 q 197 520 155 433 q 113 346 113 251 q 113 170 145 121 q 177 71 226 49 q 275 28 327 28 q 361 28 395 35 q 429 42 451 52 l 442 8 q 393 -12 326 -12 q 206 -12 136 59 q 66 130 66 252 z"},"W":{"x_min":0,"x_max":824,"ha":824,"o":"m 101 653 l 145 653 l 210 185 l 226 66 l 228 66 q 236 92 254 135 q 272 179 471 653 l 528 653 l 545 186 l 551 66 l 553 66 q 572 114 606 179 l 852 653 l 900 653 l 559 0 l 516 0 q 489 584 489 588 l 487 588 l 446 494 l 240 0 l 197 0 z"},"A":{"x_min":0,"x_max":577,"ha":577,"o":"m -12 0 l 348 653 l 374 653 l 499 0 l 457 0 l 411 232 l 163 232 l 34 0 z m 403 271 l 347 576 l 346 576 q 326 529 265 419 l 182 271 z"},"f":{"x_min":0,"x_max":271,"ha":271,"o":"m -141 -233 l -136 -200 l -97 -203 q -33 -203 0 -165 q 34 -127 53 -37 l 149 418 l 60 418 l 68 453 l 155 453 l 178 555 q 198 640 244 679 q 290 719 356 719 q 381 719 405 713 l 398 679 q 376 683 353 683 q 298 683 266 651 q 233 619 216 547 l 194 453 l 323 453 l 315 418 l 188 418 l 86 -74 q 67 -167 19 -203 q -28 -239 -94 -239 q -122 -239 -141 -233 z"},"Q":{"x_min":0,"x_max":685,"ha":685,"o":"m 66 230 q 66 332 106 433 q 146 534 224 600 q 301 666 408 666 q 521 666 582 604 q 642 542 642 422 q 642 297 584 187 q 526 78 440 43 l 440 41 q 494 44 545 44 l 588 44 l 579 -4 q 547 0 476 0 q 433 0 386 -3 q 325 -6 281 -6 q 181 -6 123 57 q 66 119 66 230 z m 597 423 q 597 522 551 574 q 505 626 414 626 q 320 626 252 563 q 183 501 148 409 q 113 316 113 230 q 113 131 158 80 q 204 28 295 28 q 388 28 457 90 q 525 152 561 245 q 597 337 597 423 z"},"w":{"x_min":0,"x_max":695,"ha":695,"o":"m 66 456 l 108 456 l 166 48 l 169 48 q 174 62 197 106 l 217 148 l 354 456 l 406 456 l 442 135 l 447 98 l 453 48 l 454 48 l 469 76 l 499 130 l 673 456 l 719 456 l 470 0 l 421 0 l 390 269 q 377 370 377 409 l 374 409 q 372 404 369 398 q 367 392 187 0 l 136 0 z"},"-":{"x_min":0,"x_max":314,"ha":314,"o":"m 68 222 l 75 263 l 273 263 l 264 222 z"},"E":{"x_min":0,"x_max":507,"ha":507,"o":"m 44 0 l 178 653 l 521 653 l 512 614 l 215 614 l 161 354 l 436 354 l 428 315 l 152 315 l 96 39 l 412 39 l 402 0 z"},"s":{"x_min":0,"x_max":380,"ha":380,"o":"m 15 18 l 24 57 q 81 24 138 24 q 223 24 248 58 q 273 93 273 127 q 273 157 260 175 q 247 193 227 203 q 207 213 174 223 q 141 235 121 246 q 102 256 89 277 q 75 297 75 330 q 75 393 117 430 q 158 468 227 468 q 262 468 296 459 q 330 450 350 438 l 342 402 q 312 416 287 424 q 262 432 235 432 q 181 432 149 406 q 117 380 117 336 q 117 304 135 286 q 152 269 185 259 q 229 245 253 234 q 277 224 296 200 q 314 177 314 138 q 314 60 266 24 q 218 -12 138 -12 q 113 -12 75 -6 q 38 1 15 18 z"},">":{"x_min":0,"x_max":500,"ha":500,"o":"m 56 29 l 56 72 l 394 255 l 394 257 l 56 440 l 56 485 l 444 274 l 444 239 z"},"l":{"x_min":0,"x_max":211,"ha":211,"o":"m 51 40 q 51 52 54 66 l 189 707 l 228 707 l 97 85 l 92 50 q 92 37 97 32 q 103 28 118 28 l 149 30 l 141 -3 q 125 -7 111 -7 q 81 -7 66 4 q 51 15 51 40 z"},"8":{"x_min":0,"x_max":466,"ha":466,"o":"m 31 137 q 31 216 80 272 q 129 328 208 338 l 210 340 q 181 357 161 374 q 142 391 128 419 q 115 446 115 487 q 115 567 168 617 q 221 666 307 666 q 382 666 427 626 q 472 586 472 518 q 472 454 426 403 q 379 353 306 338 l 306 335 q 353 322 385 288 q 418 254 418 195 q 418 140 391 93 q 365 45 315 16 q 265 -12 199 -12 q 115 -12 73 28 q 31 68 31 137 z m 431 521 q 431 571 401 600 q 370 630 309 630 q 238 630 195 590 q 153 550 153 483 q 153 430 181 400 q 210 371 264 356 q 341 369 386 414 q 431 458 431 521 z m 377 191 q 377 247 346 277 q 316 306 258 317 q 174 311 122 263 q 69 215 69 142 q 69 83 103 54 q 137 24 201 24 q 277 24 327 72 q 377 120 377 191 z"},"\\":{"x_min":0,"x_max":258,"ha":258,"o":"m 161 -122 l 42 653 l 86 653 l 204 -122 z"},"e":{"x_min":0,"x_max":429,"ha":429,"o":"m 41 167 q 41 240 70 310 q 99 379 152 424 q 206 468 277 468 q 334 468 370 438 q 405 407 405 357 q 405 291 331 257 q 257 223 106 216 l 84 215 q 79 194 79 174 q 79 97 115 61 q 150 24 224 24 q 275 24 339 50 l 333 15 q 283 -12 217 -12 q 127 -12 84 36 q 41 84 41 167 z m 365 358 q 365 389 341 411 q 316 432 280 432 q 208 432 160 381 q 113 331 91 251 q 244 257 304 283 q 365 310 365 358 z"},"b":{"x_min":0,"x_max":473,"ha":473,"o":"m 49 115 q 49 135 54 157 l 170 707 l 208 707 l 142 389 l 144 389 q 169 422 205 445 q 241 468 285 468 q 318 468 348 453 q 379 439 399 405 q 420 370 420 313 q 420 235 393 160 q 366 85 311 37 q 255 -12 174 -12 q 116 -12 83 22 q 49 56 49 115 z m 378 304 q 378 362 350 397 q 323 432 276 432 q 250 432 217 413 q 184 394 157 360 q 130 326 121 284 l 95 160 q 89 137 89 116 q 89 74 113 49 q 138 24 180 24 q 245 24 290 69 q 334 114 356 179 q 378 244 378 304 z"},"%":{"x_min":0,"x_max":794,"ha":794,"o":"m 65 367 q 65 427 84 497 q 104 567 144 616 q 184 666 243 666 q 331 666 331 540 q 331 479 312 409 q 293 339 254 290 q 214 240 155 240 q 110 240 87 273 q 65 306 65 367 z m 118 -7 l 93 14 l 707 655 l 733 632 z m 294 536 q 294 586 282 608 q 270 630 239 630 q 194 630 164 583 q 133 537 119 475 q 104 413 104 369 q 104 319 116 297 q 129 275 158 275 q 203 275 234 322 q 265 368 279 430 q 294 492 294 536 z m 497 117 q 497 177 516 247 q 536 317 576 366 q 616 416 675 416 q 763 416 763 290 q 763 229 744 159 q 726 89 686 40 q 646 -10 587 -10 q 542 -10 520 23 q 497 56 497 117 z m 726 286 q 726 336 714 358 q 702 380 671 380 q 626 380 596 333 q 565 287 551 225 q 536 163 536 119 q 536 69 549 47 q 561 25 590 25 q 635 25 666 72 q 697 118 711 180 q 726 242 726 286 z"},"m":{"x_min":0,"x_max":766,"ha":766,"o":"m 126 456 l 155 456 l 154 389 l 155 389 q 184 425 226 447 q 268 468 314 468 q 362 468 392 442 q 423 416 423 372 l 423 368 l 425 368 q 457 420 504 444 q 551 468 600 468 q 647 468 677 441 q 707 414 707 365 q 707 329 697 279 l 639 0 l 600 0 l 662 301 q 668 330 668 354 q 668 396 646 414 q 625 432 594 432 q 533 432 478 383 q 424 334 409 263 l 355 0 l 315 0 l 377 301 q 383 330 383 354 q 383 432 307 432 q 270 432 232 414 q 194 396 166 360 q 138 325 128 277 l 70 0 l 31 0 z"},"#":{"x_min":0,"x_max":616,"ha":616,"o":"m 583 407 l 468 407 l 417 246 l 526 246 l 523 207 l 405 207 l 343 0 l 299 0 l 363 207 l 203 207 l 140 0 l 97 0 l 161 207 l 52 207 l 57 246 l 172 246 l 222 407 l 112 407 l 116 446 l 234 446 l 297 653 l 339 653 l 277 446 l 436 446 l 500 653 l 542 653 l 479 446 l 587 446 z m 375 246 l 424 407 l 265 407 l 214 246 z"},",":{"x_min":0,"x_max":225,"ha":225,"o":"m -66 -180 l 28 84 l 75 84 l -25 -180 z"},"n":{"x_min":0,"x_max":499,"ha":499,"o":"m 126 456 l 155 456 l 154 389 l 156 389 q 191 431 232 449 q 273 468 326 468 q 382 468 412 441 q 442 415 442 365 q 442 344 438 318 q 433 292 372 0 l 334 0 l 393 288 q 402 330 402 358 q 402 399 377 416 q 353 432 309 432 q 221 432 158 350 q 135 319 127 274 l 70 0 l 31 0 z"},"h":{"x_min":0,"x_max":503,"ha":503,"o":"m 447 365 q 447 331 435 279 l 377 0 l 338 0 l 397 284 q 406 329 406 358 q 406 399 382 416 q 358 432 314 432 q 271 432 233 412 q 194 391 168 356 q 142 321 134 284 l 74 0 l 35 0 l 182 707 l 221 707 l 152 386 l 154 386 q 222 468 325 468 q 385 468 416 442 q 447 416 447 365 z"},"z":{"x_min":0,"x_max":432,"ha":432,"o":"m 20 0 l 23 19 l 344 421 l 106 421 l 115 456 l 405 456 l 399 430 l 88 35 l 344 35 l 337 0 z"},"B":{"x_min":0,"x_max":576,"ha":576,"o":"m 180 653 l 307 653 q 407 653 467 615 q 528 577 528 498 q 528 434 487 389 q 446 344 378 334 l 378 332 q 436 327 470 291 q 504 255 504 199 q 504 162 489 127 q 474 92 444 64 q 414 37 373 22 q 332 8 298 4 q 264 0 202 0 l 44 0 z m 310 352 q 344 352 388 371 q 431 391 456 423 q 480 455 480 498 q 480 550 433 582 q 386 614 310 614 l 214 614 l 162 352 z m 210 39 q 294 39 349 59 q 403 79 429 117 q 456 155 456 201 q 456 249 420 281 q 385 313 316 313 l 151 313 l 97 39 z"},"K":{"x_min":0,"x_max":532,"ha":532,"o":"m 595 653 l 208 318 l 473 0 l 421 0 l 153 319 l 86 0 l 44 0 l 178 653 l 222 653 l 153 321 l 539 653 z"},"R":{"x_min":0,"x_max":567,"ha":567,"o":"m 178 653 l 345 653 q 441 653 493 611 q 545 570 545 498 q 545 417 487 362 q 429 308 325 293 l 325 291 l 479 0 l 428 0 l 276 290 l 146 290 l 87 0 l 44 0 z m 255 329 q 315 329 372 343 q 428 356 464 396 q 499 435 499 496 q 499 532 478 561 q 457 589 423 602 q 389 614 346 614 l 212 614 l 155 329 z"},"T":{"x_min":0,"x_max":472,"ha":472,"o":"m 157 0 l 284 614 l 84 614 l 94 653 l 538 653 l 529 614 l 327 614 l 202 0 z"},"P":{"x_min":0,"x_max":528,"ha":528,"o":"m 154 653 l 311 653 q 401 653 456 612 q 510 571 510 502 q 510 401 431 342 q 352 284 213 282 q 170 282 121 287 l 63 0 l 19 0 z m 464 497 q 464 551 422 582 q 379 614 309 614 l 188 614 l 131 328 q 163 321 208 321 q 326 321 395 368 q 464 416 464 497 z"},"|":{"x_min":0,"x_max":218,"ha":218,"o":"m 90 -227 l 90 707 l 132 707 l 132 -227 z"},"t":{"x_min":0,"x_max":311,"ha":311,"o":"m 80 71 q 80 93 83 106 l 148 417 l 56 417 l 64 456 l 158 456 l 182 578 l 221 578 l 196 456 l 319 456 l 310 417 l 187 417 l 127 129 q 122 104 122 83 q 122 51 139 39 q 155 26 194 26 q 227 26 249 32 l 240 -7 q 215 -12 186 -12 q 80 -12 80 71 z"},"M":{"x_min":0,"x_max":778,"ha":778,"o":"m 243 653 l 322 197 q 335 121 345 51 l 347 51 l 399 140 l 702 653 l 770 653 l 632 0 l 590 0 q 679 415 694 480 q 708 546 725 613 l 721 613 l 602 409 l 359 0 l 317 0 l 235 473 q 222 550 210 613 l 207 613 q 170 413 146 302 l 82 0 l 39 0 l 177 653 z"},"g":{"x_min":0,"x_max":484,"ha":484,"o":"m -11 -216 l -5 -176 q 53 -198 112 -198 q 204 -198 251 -155 q 297 -111 322 4 l 337 71 l 335 71 q 299 23 258 5 q 217 -12 180 -12 q 116 -12 82 27 q 49 67 49 137 q 49 217 79 294 q 110 370 166 419 q 222 468 294 468 q 366 468 401 409 l 403 409 l 428 456 l 455 456 l 356 -29 q 333 -143 268 -191 q 203 -239 112 -239 q 78 -239 52 -233 q 26 -228 -11 -216 z m 395 365 q 374 395 348 414 q 322 432 283 432 q 226 432 182 385 q 139 337 115 270 q 92 202 92 148 q 92 24 181 24 q 217 24 256 46 q 295 69 323 105 q 352 142 360 182 z"},"j":{"x_min":0,"x_max":195,"ha":195,"o":"m 154 563 l 164 608 l 207 608 l 197 563 z m -146 -234 l -140 -195 q -119 -198 -101 -198 q -58 -198 -34 -186 q -11 -173 2 -146 q 15 -120 26 -68 l 134 456 l 173 456 l 60 -99 q 50 -149 32 -178 q 13 -208 -18 -223 q -48 -239 -98 -239 q -125 -239 -146 -234 z"},"i":{"x_min":0,"x_max":184,"ha":184,"o":"m 145 563 l 155 608 l 195 608 l 185 563 z m 30 0 l 123 456 l 163 456 l 69 0 z"},"y":{"x_min":0,"x_max":451,"ha":451,"o":"m -55 -236 l -46 -196 l -27 -198 q 35 -198 83 -151 q 130 -103 177 5 l 73 456 l 116 456 l 195 105 l 207 53 l 209 53 l 240 109 l 425 456 l 474 456 l 219 -10 q 174 -94 142 -141 q 110 -188 70 -214 q 30 -239 -28 -239 q -42 -239 -55 -236 z"},"@":{"x_min":0,"x_max":990,"ha":990,"o":"m 88 177 q 88 311 142 423 q 196 534 300 600 q 404 666 548 666 q 717 666 814 575 q 911 484 911 326 q 911 230 880 155 q 849 80 797 38 q 746 -4 686 -4 q 640 -4 618 21 q 597 45 597 85 l 599 108 l 597 108 q 569 60 527 28 q 484 -4 431 -4 q 372 -4 337 35 q 302 74 302 146 q 302 223 332 298 q 362 373 416 421 q 470 469 536 469 q 576 469 611 449 q 646 429 661 397 l 662 397 l 684 457 l 712 457 l 642 142 q 635 109 635 87 q 635 28 687 28 q 735 28 778 65 q 820 103 846 171 q 872 238 872 324 q 872 471 787 551 q 702 630 546 630 q 416 630 321 569 q 227 509 178 405 q 129 301 129 174 q 129 76 167 0 q 206 -76 284 -120 q 363 -164 481 -164 q 559 -164 621 -154 q 683 -143 720 -125 l 706 -168 q 621 -202 475 -202 q 349 -202 261 -154 q 174 -105 131 -20 q 88 65 88 177 z m 653 364 q 608 433 543 433 q 478 433 432 386 q 387 338 364 272 q 342 205 342 149 q 342 89 368 59 q 394 30 436 30 q 493 30 549 87 q 604 145 622 223 z"},".":{"x_min":0,"x_max":234,"ha":234,"o":"m 6 0 l 17 63 l 76 63 l 63 0 z"},"p":{"x_min":0,"x_max":492,"ha":492,"o":"m 131 456 l 159 456 l 159 389 l 161 389 q 189 431 228 449 q 266 468 304 468 q 372 468 406 426 q 440 384 440 305 q 440 229 413 156 q 387 83 334 35 q 282 -12 210 -12 q 129 -12 85 36 l 83 36 l 29 -227 l -9 -227 z m 398 300 q 398 371 369 401 q 340 432 299 432 q 246 432 196 386 q 146 340 134 278 l 92 74 q 114 51 140 37 q 167 24 207 24 q 272 24 315 73 q 358 121 378 186 q 398 251 398 300 z"},"X":{"x_min":0,"x_max":531,"ha":531,"o":"m -42 0 l 254 338 l 116 653 l 160 653 l 286 367 l 288 367 l 530 653 l 584 653 l 305 330 l 444 0 l 400 0 l 275 296 l 273 296 l 13 0 z"},"*":{"x_min":0,"x_max":543,"ha":543,"o":"m 375 237 l 334 317 l 308 428 l 306 428 l 242 335 l 176 272 l 139 309 l 205 371 l 293 439 l 293 441 l 193 475 l 112 516 l 135 563 l 218 522 l 299 457 l 301 458 l 302 563 l 320 654 l 369 646 l 354 555 l 318 455 l 320 453 l 420 485 l 511 495 l 518 447 l 428 434 l 322 437 l 320 435 l 379 340 l 420 259 z"},"Y":{"x_min":0,"x_max":506,"ha":506,"o":"m 193 0 l 249 266 l 101 653 l 145 653 l 274 308 l 505 653 l 555 653 l 292 266 l 236 0 z"},"c":{"x_min":0,"x_max":398,"ha":398,"o":"m 42 162 q 42 232 68 303 q 94 374 147 421 q 201 468 278 468 q 341 468 391 442 l 383 409 q 362 419 332 426 q 303 432 276 432 q 211 432 168 388 q 125 345 104 283 q 84 221 84 166 q 84 89 117 57 q 150 24 211 24 q 246 24 276 32 q 306 41 319 50 l 311 15 q 296 4 266 -4 q 235 -12 207 -12 q 133 -12 87 30 q 42 73 42 162 z"},"!":{"x_min":0,"x_max":239,"ha":239,"o":"m 82 188 l 171 653 l 224 653 l 119 188 z m 40 0 l 52 63 l 107 63 l 94 0 z"},"/":{"x_min":0,"x_max":258,"ha":258,"o":"m -71 -122 l 274 653 l 323 653 l -24 -122 z"},"[":{"x_min":0,"x_max":304,"ha":304,"o":"m 14 -146 l 181 653 l 363 653 l 357 615 l 218 615 l 66 -108 l 204 -108 l 197 -146 z"},"6":{"x_min":0,"x_max":436,"ha":436,"o":"m 17 190 q 17 278 52 390 q 87 502 160 584 q 233 666 342 666 q 363 666 389 660 q 416 655 434 647 l 428 612 q 413 619 386 625 q 360 631 334 631 q 265 631 210 582 q 155 534 119 456 q 82 378 64 288 l 67 289 q 96 333 139 359 q 182 384 236 384 q 307 384 347 342 q 387 300 387 227 q 387 169 362 114 q 337 59 289 23 q 240 -12 175 -12 q 102 -12 60 39 q 17 89 17 190 z m 347 227 q 347 282 315 314 q 283 347 230 347 q 158 347 108 292 q 59 237 59 158 q 59 96 91 60 q 124 24 178 24 q 232 24 270 54 q 308 83 328 130 q 347 177 347 227 z"},"r":{"x_min":0,"x_max":282,"ha":282,"o":"m 125 456 l 155 456 l 153 389 l 155 389 q 177 421 216 445 q 254 468 297 468 q 315 468 326 465 l 317 423 q 309 425 297 425 q 246 425 215 405 q 184 386 159 353 q 135 319 126 272 l 70 0 l 30 0 z"},"2":{"x_min":0,"x_max":509,"ha":509,"o":"m 368 343 q 368 384 343 408 q 318 432 268 432 q 204 432 126 397 l 135 438 q 196 468 268 468 q 332 468 370 436 q 407 403 407 347 q 407 287 368 234 q 330 182 272 140 q 214 98 114 35 l 114 33 q 184 39 243 39 l 387 39 l 376 0 l 49 0 l 55 35 q 212 137 261 176 q 311 216 340 257 q 368 297 368 343 z"},"{":{"x_min":0,"x_max":280,"ha":280,"o":"m 9 -43 q 9 -19 17 2 q 24 22 34 37 q 44 51 65 80 q 88 109 100 133 q 112 156 112 184 q 112 237 42 237 l 50 278 q 77 280 96 285 q 115 290 133 313 q 151 336 151 384 q 151 401 147 416 q 144 431 137 453 q 125 491 125 523 q 125 577 174 609 q 223 641 306 641 l 315 641 l 307 604 q 242 604 207 583 q 173 562 173 522 q 173 503 181 471 q 186 458 191 431 q 196 403 196 384 q 196 337 170 300 q 145 263 106 252 l 106 250 q 122 248 134 226 q 145 204 145 171 q 145 118 110 68 q 85 35 72 10 q 58 -14 58 -38 q 58 -66 84 -82 q 110 -97 155 -97 l 147 -134 l 146 -134 q 9 -134 9 -43 z"},"9":{"x_min":0,"x_max":471,"ha":471,"o":"m -18 -178 l -7 -139 q 10 -150 37 -157 q 64 -164 92 -164 q 165 -164 223 -118 q 282 -72 321 6 q 359 83 373 177 l 371 177 q 342 130 297 102 q 251 73 196 73 q 125 73 85 114 q 45 155 45 226 q 45 332 103 400 q 160 468 247 468 q 294 468 333 446 q 371 423 394 377 q 417 331 417 261 q 417 145 377 38 q 337 -69 263 -136 q 189 -202 92 -202 q 55 -202 27 -195 q -2 -188 -18 -178 z m 371 286 q 371 353 338 393 q 304 432 247 432 q 175 432 130 375 q 85 317 85 224 q 86 169 116 140 q 146 112 198 112 q 250 112 289 137 q 329 162 350 202 q 371 243 371 286 z"}," ":{"x_min":0,"x_max":195,"ha":195,"o":""},"I":{"x_min":0,"x_max":233,"ha":233,"o":"m 44 0 l 178 653 l 223 653 l 87 0 z"},"H":{"x_min":0,"x_max":641,"ha":641,"o":"m 178 653 l 222 653 l 159 356 l 523 356 l 586 653 l 630 653 l 492 0 l 448 0 l 515 317 l 151 317 l 84 0 l 40 0 z"},"4":{"x_min":0,"x_max":489,"ha":489,"o":"m 251 0 l 5 0 l 11 32 l 291 456 l 334 456 l 57 37 l 57 34 l 137 35 l 259 35 l 294 208 l 334 208 l 297 35 l 392 35 l 386 0 l 291 0 l 250 -189 l 212 -189 z"},"~":{"x_min":0,"x_max":500,"ha":500,"o":"m 156 218 q 116 218 85 172 l 53 194 q 62 219 92 238 q 123 257 157 257 q 189 257 256 230 q 281 220 298 214 q 315 209 331 209 q 355 209 371 221 q 387 232 404 255 l 434 235 q 426 209 396 190 q 366 171 332 171 q 313 171 296 175 q 279 180 249 189 q 193 218 156 218 z"},"D":{"x_min":0,"x_max":626,"ha":626,"o":"m 178 653 l 316 653 q 410 653 470 624 q 530 594 560 538 q 589 481 589 399 q 589 285 542 194 q 495 104 408 52 q 322 0 209 0 l 44 0 z m 204 39 q 310 39 386 88 q 463 138 503 220 q 543 302 543 399 q 543 480 515 525 q 487 571 439 592 q 390 614 319 614 l 213 614 l 96 39 z"},"^":{"x_min":0,"x_max":500,"ha":500,"o":"m 22 279 l 231 666 l 269 666 l 478 279 l 435 279 l 250 617 l 248 617 l 66 279 z"},"0":{"x_min":0,"x_max":510,"ha":510,"o":"m 34 158 q 34 225 64 297 q 94 370 153 419 q 211 468 292 468 q 382 468 422 419 q 461 371 461 299 q 461 231 431 159 q 402 86 344 37 q 286 -12 204 -12 q 113 -12 73 37 q 34 85 34 158 z m 420 297 q 420 365 388 399 q 356 432 286 432 q 231 432 183 396 q 134 359 105 296 q 75 233 75 159 q 75 91 107 57 q 139 24 208 24 q 263 24 312 61 q 360 97 390 160 q 420 223 420 297 z"},"F":{"x_min":0,"x_max":457,"ha":457,"o":"m 44 0 l 178 653 l 517 653 l 508 615 l 215 615 l 161 354 l 428 354 l 418 315 l 152 315 l 87 0 z"},"`":{"x_min":0,"x_max":298,"ha":298,"o":"m 203 549 l 162 719 l 213 719 l 237 549 z"},"k":{"x_min":0,"x_max":400,"ha":400,"o":"m 353 28 l 359 28 l 352 -9 l 340 -10 q 295 -10 263 26 q 231 61 203 121 q 180 172 163 203 q 145 235 125 250 l 74 0 l 35 0 l 182 707 l 221 707 l 126 255 l 361 456 l 422 456 l 172 249 q 187 240 198 222 q 208 203 225 167 q 258 91 286 59 q 314 28 353 28 z"},"u":{"x_min":0,"x_max":474,"ha":474,"o":"m 57 111 q 57 140 61 161 l 123 456 l 162 456 l 101 159 q 96 138 96 116 q 96 75 122 50 q 148 24 203 24 q 268 24 304 61 q 339 98 354 165 l 414 456 l 454 456 l 394 169 q 375 70 329 29 q 283 -12 205 -12 q 57 -12 57 111 z"},"]":{"x_min":0,"x_max":304,"ha":304,"o":"m -60 -146 l -51 -108 l 86 -108 l 238 615 l 98 615 l 106 653 l 290 653 l 123 -146 z"},"U":{"x_min":0,"x_max":631,"ha":631,"o":"m 74 168 q 74 208 83 251 l 167 653 l 210 653 l 128 254 q 118 205 118 173 q 118 106 155 67 q 192 28 269 28 q 339 28 388 56 q 437 85 466 131 q 496 177 510 248 l 593 653 l 637 653 l 547 222 q 531 146 493 95 q 455 44 400 16 q 344 -12 273 -12 q 179 -12 127 35 q 74 83 74 168 z"},"o":{"x_min":0,"x_max":472,"ha":472,"o":"m 42 164 q 42 214 66 286 q 90 358 143 413 q 196 468 280 468 q 354 468 391 419 q 429 370 429 282 q 429 231 405 162 q 381 92 327 40 q 273 -12 189 -12 q 122 -12 82 36 q 42 83 42 164 z m 387 284 q 387 346 361 389 q 334 432 278 432 q 218 432 174 388 q 130 345 107 281 q 84 218 84 162 q 84 99 113 62 q 142 24 190 24 q 250 24 295 65 q 340 105 364 166 q 387 227 387 284 z"},"N":{"x_min":0,"x_max":656,"ha":656,"o":"m 178 653 l 216 653 l 454 136 l 486 66 l 487 66 q 509 191 513 210 l 604 653 l 648 653 l 511 0 l 474 0 l 260 463 q 216 556 204 588 l 203 588 l 194 532 l 178 444 l 88 0 l 44 0 z"},"+":{"x_min":0,"x_max":500,"ha":500,"o":"m 228 45 l 228 230 l 56 230 l 56 270 l 228 270 l 228 455 l 272 455 l 272 270 l 444 270 l 444 230 l 272 230 l 272 45 z"},"G":{"x_min":0,"x_max":665,"ha":665,"o":"m 75 246 q 75 336 113 433 q 151 530 238 598 q 325 666 463 666 q 508 666 554 659 q 600 651 621 642 l 613 603 q 588 613 549 619 q 511 626 469 626 q 364 626 289 579 q 214 532 168 439 q 123 346 123 250 q 123 146 179 87 q 235 28 334 28 q 414 28 463 70 q 513 112 532 200 l 550 282 l 399 282 l 408 323 l 601 323 l 572 189 q 549 82 486 35 q 423 -12 333 -12 q 261 -12 203 16 q 145 43 110 102 q 75 160 75 246 z"},"q":{"x_min":0,"x_max":474,"ha":474,"o":"m 328 71 l 326 71 q 289 24 247 6 q 206 -12 169 -12 q 42 -12 42 145 q 42 224 72 299 q 103 374 157 421 q 212 468 281 468 q 321 468 351 451 q 380 435 391 409 l 393 409 l 418 456 l 447 456 l 304 -227 l 264 -227 z m 388 365 q 366 395 339 414 q 313 432 274 432 q 215 432 172 386 q 128 340 106 272 q 84 205 84 143 q 84 75 110 50 q 135 24 171 24 q 210 24 249 48 q 288 72 315 106 q 342 140 348 167 z"},"d":{"x_min":0,"x_max":478,"ha":478,"o":"m 41 144 q 41 228 73 306 q 105 383 159 426 q 214 468 282 468 q 362 468 395 409 l 397 409 l 459 707 l 499 707 l 367 74 q 363 52 363 46 q 363 36 369 32 q 376 28 393 28 q 405 28 418 31 l 409 -3 q 397 -7 375 -7 q 348 -7 336 4 q 324 14 324 43 l 326 68 l 324 68 q 289 22 247 5 q 206 -12 168 -12 q 41 -12 41 144 z m 388 367 q 368 396 340 414 q 313 432 273 432 q 211 432 168 385 q 125 339 104 272 q 83 206 83 146 q 83 76 109 50 q 136 24 173 24 q 232 24 287 75 q 342 126 354 191 z"},"1":{"x_min":0,"x_max":430,"ha":430,"o":"m 30 0 l 37 39 l 182 39 l 257 414 l 74 351 l 83 392 l 265 456 l 307 456 l 220 39 l 368 39 l 359 0 z"},"5":{"x_min":0,"x_max":486,"ha":486,"o":"m -3 -178 l 6 -144 q 32 -154 67 -160 q 102 -166 131 -166 q 188 -166 237 -146 q 286 -125 316 -84 q 345 -42 345 18 q 345 87 297 118 q 250 149 158 149 l 92 148 l 191 456 l 472 456 l 465 417 l 218 417 l 145 185 l 172 186 q 273 186 330 142 q 386 98 386 20 q 386 -49 352 -100 q 317 -150 259 -176 q 201 -202 131 -202 q 91 -202 55 -196 q 19 -189 -3 -178 z"}}}
